# xmcd
#
# Track frame offsets:
#	182
#	13687
#	33185
#	44577
#	61767
#	75852
#	87605
#	104570
#	118977
#	137957
#	151057
#	164737
#
# Disc length: 2335 seconds
#
# Revision: 1
# Processed by: cddbd v1.5PL3 Copyright (c) Steve Scherf et al.
# Submitted via: audiograbber 1.81.03
#
DISCID=9c091d0c
DTITLE=Timi Yuro - Timi Yuro Sings...Willie Nelson
DYEAR=1991
DGENRE=Country
TTITLE0=Did I Ever Love You (with Willie Nelson)
TTITLE1=Crazy
TTITLE2=There's A Way (with Willie Nelson)
TTITLE3=Will You Remember Mine
TTITLE4=Permanently Lonely
TTITLE5=On The Road Again
TTITLE6=Touch Me
TTITLE7=My Own Peculiar Way
TTITLE8=Once Alone
TTITLE9=You Took My Happy Away
TTITLE10=Opportunity To Cry
TTITLE11=I Never Cared For You
EXTD=
EXTT0=
EXTT1=
EXTT2=
EXTT3=
EXTT4=
EXTT5=
EXTT6=
EXTT7=
EXTT8=
EXTT9=
EXTT10=
EXTT11=
PLAYORDER=
